if (_typeface_js && _typeface_js.loadFace) _typeface_js.loadFace({"glyphs":{"S":{"x_min":36.640625,"x_max":725.3125,"ha":763,"o":"m 398 937 q 544 921 469 937 q 684 865 620 904 l 684 675 q 395 763 540 763 q 298 741 334 763 q 262 679 262 719 q 281 628 262 649 q 331 595 300 608 q 412 566 361 582 q 570 506 505 537 q 679 419 634 475 q 725 275 725 362 q 675 121 725 186 q 541 22 625 56 q 354 -11 457 -11 q 200 9 276 -11 q 36 79 123 30 l 36 276 q 203 192 114 223 q 367 162 292 162 q 474 189 431 162 q 516 264 516 216 q 489 325 516 299 q 428 364 462 350 q 337 395 393 378 q 126 496 199 435 q 54 669 54 557 q 98 817 54 757 q 221 907 143 877 q 398 937 299 937 "},"F":{"x_min":89.6875,"x_max":710.84375,"ha":720,"o":"m 652 538 l 652 371 l 298 371 l 298 0 l 89 0 l 89 925 l 710 925 l 710 752 l 298 752 l 298 538 l 652 538 "},"T":{"x_min":24.109375,"x_max":784.140625,"ha":809,"o":"m 299 0 l 299 752 l 24 752 l 24 925 l 784 925 l 784 752 l 508 752 l 508 0 l 299 0 "},"N":{"x_min":85.84375,"x_max":979.9375,"ha":1068,"o":"m 285 0 l 85 0 l 85 925 l 308 925 l 780 307 l 780 925 l 979 925 l 979 0 l 758 0 l 285 618 l 285 0 "},"K":{"x_min":89.6875,"x_max":928.8125,"ha":946,"o":"m 298 925 l 298 0 l 89 0 l 89 925 l 298 925 m 309 491 l 616 925 l 870 925 l 547 498 l 928 0 l 665 0 l 309 491 "},"Y":{"x_min":13.5,"x_max":921.09375,"ha":936,"o":"m 362 440 l 13 925 l 273 925 l 471 627 l 668 925 l 921 925 l 570 440 l 570 0 l 362 0 l 362 440 "},"E":{"x_min":89.6875,"x_max":710.84375,"ha":770,"o":"m 652 552 l 652 385 l 298 385 l 298 173 l 710 173 l 710 0 l 89 0 l 89 925 l 710 925 l 710 752 l 298 752 l 298 552 l 652 552 "},"V":{"x_min":32.78125,"x_max":975.109375,"ha":1010,"o":"m 262 925 l 504 268 l 746 925 l 975 925 l 616 0 l 391 0 l 32 925 l 262 925 "},"Z":{"x_min":45.328125,"x_max":805.359375,"ha":852,"o":"m 805 0 l 45 0 l 45 173 l 537 752 l 45 752 l 45 925 l 805 925 l 805 752 l 313 173 l 805 173 l 805 0 "},"Q":{"x_min":24.109375,"x_max":1015.625,"ha":1042,"o":"m 1015 462 q 983 290 1015 371 q 892 145 951 209 l 1015 0 l 802 0 l 762 47 q 519 -11 650 -11 q 271 50 384 -11 q 90 221 157 112 q 24 462 24 329 q 90 704 24 596 q 271 875 157 813 q 519 937 384 937 q 768 875 654 937 q 949 704 882 813 q 1015 462 1015 596 m 519 183 q 627 205 577 183 l 508 347 l 721 347 l 750 313 q 789 462 789 380 q 753 606 789 542 q 655 706 717 670 q 519 742 594 742 q 383 706 445 742 q 285 606 322 670 q 249 462 249 542 q 285 319 249 383 q 383 219 322 255 q 519 183 445 183 "},"M":{"x_min":90.65625,"x_max":1105.328125,"ha":1198,"o":"m 650 263 l 541 263 l 290 624 l 290 0 l 90 0 l 90 925 l 324 925 l 598 535 l 868 925 l 1105 925 l 1105 0 l 896 0 l 896 625 l 650 263 "},"C":{"x_min":24.109375,"x_max":836.21875,"ha":883,"o":"m 503 937 q 688 911 608 937 q 836 839 767 886 l 836 612 q 532 742 704 742 q 389 706 454 742 q 287 607 325 671 q 249 462 249 543 q 287 318 249 381 q 389 218 325 254 q 532 183 454 183 q 836 312 704 183 l 836 86 q 692 12 771 36 q 503 -11 612 -11 q 262 50 372 -11 q 88 221 152 112 q 24 462 24 329 q 88 704 24 596 q 262 875 152 813 q 503 937 372 937 "},"L":{"x_min":98.375,"x_max":718.546875,"ha":737,"o":"m 98 0 l 98 925 l 306 925 l 306 194 l 718 194 l 718 0 l 98 0 "},"A":{"x_min":32.78125,"x_max":975.109375,"ha":1010,"o":"m 391 925 l 616 925 l 975 0 l 766 0 l 685 220 l 323 220 l 241 0 l 32 0 l 391 925 m 504 745 l 383 394 l 624 394 l 504 745 "},"J":{"x_min":-2.890625,"x_max":571.953125,"ha":663,"o":"m 571 331 q 532 150 571 228 q 421 30 493 73 q 249 -11 348 -11 q 110 10 177 -11 q -2 70 44 31 l -2 297 q 98 222 44 249 q 200 194 153 194 q 317 233 271 194 q 363 353 363 272 l 363 925 l 571 925 l 571 331 "},"O":{"x_min":24.109375,"x_max":1015.625,"ha":1042,"o":"m 519 937 q 768 875 654 937 q 949 704 882 813 q 1015 462 1015 596 q 949 221 1015 329 q 768 50 882 112 q 519 -11 654 -11 q 271 50 384 -11 q 90 221 157 112 q 24 462 24 329 q 90 704 24 596 q 271 875 157 813 q 519 937 384 937 m 519 742 q 383 706 445 742 q 285 606 322 670 q 249 462 249 542 q 285 319 249 383 q 383 219 322 255 q 519 183 445 183 q 655 219 594 183 q 753 319 717 255 q 789 462 789 383 q 753 606 789 542 q 655 706 717 670 q 519 742 594 742 "},"W":{"x_min":10.609375,"x_max":1376.34375,"ha":1389,"o":"m 508 0 l 299 0 l 10 925 l 218 925 l 404 294 l 589 925 l 797 925 l 982 294 l 1168 925 l 1376 925 l 1087 0 l 878 0 l 693 631 l 508 0 "}," ":{"x_min":0,"x_max":0,"ha":368},"X":{"x_min":13.5,"x_max":962.578125,"ha":979,"o":"m 485 332 l 266 0 l 13 0 l 359 480 l 42 925 l 302 925 l 491 633 l 681 925 l 933 925 l 616 486 l 962 0 l 702 0 l 485 332 "},"P":{"x_min":89.6875,"x_max":787.03125,"ha":820,"o":"m 460 925 q 624 883 548 925 q 743 769 699 841 q 787 612 787 697 q 743 455 787 527 q 624 340 699 382 q 460 299 548 299 l 298 299 l 298 0 l 89 0 l 89 925 l 460 925 m 434 472 q 504 491 472 472 q 556 542 537 510 q 574 612 574 574 q 556 682 574 650 q 504 733 537 714 q 434 752 472 752 l 298 752 l 298 472 l 434 472 "},"B":{"x_min":89.6875,"x_max":819.828125,"ha":862,"o":"m 450 925 q 612 894 542 925 q 722 806 683 863 q 761 679 761 750 q 733 572 761 621 q 653 492 704 524 q 774 402 729 462 q 819 265 819 341 q 778 128 819 189 q 661 34 736 68 q 489 0 586 0 l 89 0 l 89 925 l 450 925 m 442 557 q 522 587 490 557 q 553 661 553 617 q 522 736 553 706 q 442 766 490 766 l 298 766 l 298 557 l 442 557 m 482 159 q 548 176 518 159 q 594 220 577 192 q 611 282 611 248 q 594 344 611 316 q 548 388 577 372 q 482 405 518 405 l 298 405 l 298 159 l 482 159 "},"H":{"x_min":89.6875,"x_max":933.640625,"ha":1026,"o":"m 306 372 l 306 0 l 89 0 l 89 925 l 306 925 l 306 567 l 717 567 l 717 925 l 933 925 l 933 0 l 717 0 l 717 372 l 306 372 "},"D":{"x_min":89.6875,"x_max":966.4375,"ha":992,"o":"m 473 925 q 721 866 608 925 q 900 700 834 806 q 966 462 966 595 q 900 225 966 330 q 721 59 834 119 q 473 0 608 0 l 89 0 l 89 925 l 473 925 m 473 188 q 608 222 546 188 q 705 320 669 257 q 740 462 740 382 q 705 605 740 543 q 608 703 669 668 q 473 737 546 737 l 298 737 l 298 188 l 473 188 "},"R":{"x_min":94.515625,"x_max":847.796875,"ha":878,"o":"m 464 925 q 628 883 553 925 q 747 769 703 841 q 790 612 790 697 q 747 457 790 527 q 629 351 703 387 l 847 0 l 609 0 l 424 299 l 302 299 l 302 0 l 94 0 l 94 925 l 464 925 m 439 472 q 509 491 477 472 q 560 542 542 510 q 579 612 579 574 q 560 682 579 650 q 509 733 542 714 q 439 752 477 752 l 302 752 l 302 472 l 439 472 "},"I":{"x_min":102.234375,"x_max":310.5625,"ha":416,"o":"m 310 925 l 310 0 l 102 0 l 102 925 l 310 925 "},"G":{"x_min":24.109375,"x_max":878.65625,"ha":940,"o":"m 541 937 q 718 913 624 937 q 878 840 812 889 l 878 626 q 727 711 814 680 q 553 742 640 742 q 394 707 463 742 q 287 608 326 672 q 249 462 249 544 q 287 311 249 378 q 394 206 326 244 q 546 168 462 168 q 627 181 585 168 q 704 217 670 194 l 704 365 l 519 365 l 519 518 l 878 518 l 878 102 q 710 17 802 47 q 525 -11 618 -11 q 271 50 385 -11 q 90 221 156 112 q 24 462 24 329 q 87 700 24 592 q 267 873 150 809 q 541 937 384 937 "},"U":{"x_min":78.125,"x_max":888.3125,"ha":968,"o":"m 888 389 q 833 179 888 271 q 686 38 779 88 q 483 -11 594 -11 q 278 38 371 -11 q 132 179 186 87 q 78 389 78 271 l 78 925 l 295 925 l 295 389 q 319 278 295 326 q 386 204 344 230 q 483 179 429 179 q 579 204 536 179 q 646 278 622 230 q 671 389 671 326 l 671 925 l 888 925 l 888 389 "}}}
